Metropolis-Light.ufo
<glyph name="exclam" format="1">
  <advance width="318"/>
  <unicode hex="0021"/>
  <outline>
    <contour>
      <point x="141" y="193" type="line"/>
      <point x="177" y="193" type="line"/>
      <point x="177" y="687" type="line"/>
      <point x="141" y="687" type="line"/>
    </contour>
    <component base="period" xOffset="5"/>
  </outline>
</glyph>
<glyph name="numbersign" format="1">
  <advance width="682"/>
  <unicode hex="0023"/>
  <outline>
    <contour>
      <point x="127" y="0" type="line"/>
      <point x="164" y="0" type="line"/>
      <point x="337" y="687" type="line"/>
      <point x="300" y="687" type="line"/>
    </contour>
    <contour>
      <point x="343" y="0" type="line"/>
      <point x="380" y="0" type="line"/>
      <point x="553" y="687" type="line"/>
      <point x="516" y="687" type="line"/>
    </contour>
    <contour>
      <point x="47" y="192" type="line"/>
      <point x="560" y="192" type="line"/>
      <point x="569" y="228" type="line"/>
      <point x="56" y="228" type="line"/>
    </contour>
    <contour>
      <point x="113" y="459" type="line"/>
      <point x="627" y="459" type="line"/>
      <point x="636" y="495" type="line"/>
      <point x="122" y="495" type="line"/>
    </contour>
  </outline>
</glyph>
<glyph name="asterisk" format="1">
  <advance width="447"/>
  <unicode hex="002A"/>
  <outline>
    <contour>
      <point x="223" y="404" type="curve" smooth="yes"/>
      <point x="233" y="404"/>
      <point x="241" y="412"/>
      <point x="241" y="421" type="curve" smooth="yes"/>
      <point x="241" y="452"/>
      <point x="233" y="489"/>
      <point x="229" y="529" type="curve"/>
      <point x="262" y="505"/>
      <point x="291" y="480"/>
      <point x="316" y="464" type="curve" smooth="yes"/>
      <point x="324" y="459"/>
      <point x="336" y="463"/>
      <point x="340" y="471" type="curve" smooth="yes"/>
      <point x="346" y="480"/>
      <point x="342" y="491"/>
      <point x="334" y="495" type="curve" smooth="yes"/>
      <point x="307" y="509"/>
      <point x="272" y="522"/>
      <point x="235" y="539" type="curve"/>
      <point x="272" y="556"/>
      <point x="309" y="567"/>
      <point x="334" y="583" type="curve" smooth="yes"/>
      <point x="342" y="588"/>
      <point x="346" y="598"/>
      <point x="340" y="607" type="curve" smooth="yes"/>
      <point x="336" y="615"/>
      <point x="324" y="618"/>
      <point x="316" y="614" type="curve" smooth="yes"/>
      <point x="289" y="600"/>
      <point x="262" y="573"/>
      <point x="229" y="549" type="curve"/>
      <point x="233" y="589"/>
      <point x="241" y="626"/>
      <point x="241" y="657" type="curve" smooth="yes"/>
      <point x="241" y="666"/>
      <point x="233" y="674"/>
      <point x="223" y="674" type="curve" smooth="yes"/>
      <point x="213" y="674"/>
      <point x="205" y="666"/>
      <point x="205" y="657" type="curve" smooth="yes"/>
      <point x="205" y="626"/>
      <point x="213" y="589"/>
      <point x="217" y="549" type="curve"/>
      <point x="184" y="573"/>
      <point x="156" y="598"/>
      <point x="130" y="614" type="curve" smooth="yes"/>
      <point x="122" y="619"/>
      <point x="111" y="615"/>
      <point x="106" y="607" type="curve" smooth="yes"/>
      <point x="101" y="598"/>
      <point x="105" y="587"/>
      <point x="112" y="583" type="curve" smooth="yes"/>
      <point x="140" y="569"/>
      <point x="174" y="556"/>
      <point x="211" y="539" type="curve"/>
      <point x="174" y="522"/>
      <point x="138" y="511"/>
      <point x="112" y="495" type="curve" smooth="yes"/>
      <point x="104" y="490"/>
      <point x="101" y="480"/>
      <point x="106" y="471" type="curve" smooth="yes"/>
      <point x="111" y="463"/>
      <point x="123" y="460"/>
      <point x="130" y="464" type="curve" smooth="yes"/>
      <point x="158" y="478"/>
      <point x="184" y="505"/>
      <point x="217" y="529" type="curve"/>
      <point x="213" y="489"/>
      <point x="205" y="452"/>
      <point x="205" y="421" type="curve" smooth="yes"/>
      <point x="205" y="412"/>
      <point x="213" y="404"/>
    </contour>
  </outline>
</glyph>
<glyph name="zero" format="1">
  <advance width="664"/>
  <unicode hex="0030"/>
  <outline>
    <contour>
      <point x="332" y="-12" type="curve" smooth="yes"/>
      <point x="487" y="-12"/>
      <point x="596" y="135"/>
      <point x="596" y="344" type="curve" smooth="yes"/>
      <point x="596" y="552"/>
      <point x="487" y="699"/>
      <point x="332" y="699" type="curve" smooth="yes"/>
      <point x="177" y="699"/>
      <point x="68" y="552"/>
      <point x="68" y="344" type="curve" smooth="yes"/>
      <point x="68" y="135"/>
      <point x="177" y="-12"/>
    </contour>
    <contour>
      <point x="332" y="24" type="curve" smooth="yes"/>
      <point x="198" y="24"/>
      <point x="104" y="157"/>
      <point x="104" y="344" type="curve" smooth="yes"/>
      <point x="104" y="531"/>
      <point x="198" y="663"/>
      <point x="332" y="663" type="curve" smooth="yes"/>
      <point x="466" y="663"/>
      <point x="560" y="531"/>
      <point x="560" y="344" type="curve" smooth="yes"/>
      <point x="560" y="157"/>
      <point x="466" y="24"/>
    </contour>
  </outline>
</glyph>
<glyph name="three" format="1">
  <advance width="560"/>
  <unicode hex="0033"/>
  <outline>
    <contour>
      <point x="266" y="-12" type="curve" smooth="yes"/>
      <point x="384" y="-12"/>
      <point x="484" y="79"/>
      <point x="484" y="187" type="curve" smooth="yes"/>
      <point x="484" y="272"/>
      <point x="437" y="334"/>
      <point x="357" y="352" type="curve"/>
      <point x="427" y="373"/>
      <point x="469" y="432"/>
      <point x="469" y="511" type="curve" smooth="yes"/>
      <point x="469" y="613"/>
      <point x="375" y="699"/>
      <point x="263" y="699" type="curve" smooth="yes"/>
      <point x="178" y="699"/>
      <point x="105" y="656"/>
      <point x="39" y="568" type="curve"/>
      <point x="66" y="544" type="line"/>
      <point x="122" y="624"/>
      <point x="186" y="663"/>
      <point x="259" y="663" type="curve" smooth="yes"/>
      <point x="353" y="663"/>
      <point x="433" y="592"/>
      <point x="433" y="507" type="curve" smooth="yes"/>
      <point x="433" y="418"/>
      <point x="365" y="366"/>
      <point x="250" y="366" type="curve" smooth="yes"/>
      <point x="187" y="366" type="line"/>
      <point x="187" y="330" type="line"/>
      <point x="249" y="330" type="line" smooth="yes"/>
      <point x="374" y="330"/>
      <point x="448" y="278"/>
      <point x="448" y="189" type="curve" smooth="yes"/>
      <point x="448" y="99"/>
      <point x="365" y="24"/>
      <point x="266" y="24" type="curve" smooth="yes"/>
      <point x="179" y="24"/>
      <point x="110" y="64"/>
      <point x="57" y="145" type="curve"/>
      <point x="31" y="120" type="line"/>
      <point x="98" y="31"/>
      <point x="175" y="-12"/>
    </contour>
  </outline>
</glyph>
<glyph name="four" format="1">
  <advance width="545"/>
  <unicode hex="0034"/>
  <outline>
    <contour>
      <point x="365" y="0" type="line"/>
      <point x="401" y="0" type="line"/>
      <point x="401" y="185" type="line"/>
      <point x="515" y="185" type="line"/>
      <point x="515" y="221" type="line"/>
      <point x="401" y="221" type="line"/>
      <point x="401" y="687" type="line"/>
      <point x="351" y="687" type="line"/>
      <point x="12" y="222" type="line"/>
      <point x="18" y="185" type="line"/>
      <point x="365" y="185" type="line"/>
    </contour>
    <contour>
      <point x="57" y="221" type="line"/>
      <point x="365" y="644" type="line"/>
      <point x="365" y="221" type="line"/>
    </contour>
  </outline>
</glyph>
<glyph name="five" format="1">
  <advance width="574"/>
  <unicode hex="0035"/>
  <outline>
    <contour>
      <point x="298" y="-12" type="curve" smooth="yes"/>
      <point x="418" y="-12"/>
      <point x="519" y="91"/>
      <point x="519" y="214" type="curve" smooth="yes"/>
      <point x="519" y="325"/>
      <point x="423" y="418"/>
      <point x="309" y="418" type="curve" smooth="yes"/>
      <point x="246" y="418"/>
      <point x="184" y="398"/>
      <point x="144" y="364" type="curve"/>
      <point x="151" y="651" type="line"/>
      <point x="493" y="651" type="line"/>
      <point x="493" y="687" type="line"/>
      <point x="116" y="687" type="line"/>
      <point x="107" y="341" type="line"/>
      <point x="143" y="323" type="line"/>
      <point x="192" y="360"/>
      <point x="250" y="382"/>
      <point x="301" y="382" type="curve" smooth="yes"/>
      <point x="400" y="382"/>
      <point x="483" y="304"/>
      <point x="483" y="211" type="curve" smooth="yes"/>
      <point x="483" y="109"/>
      <point x="398" y="24"/>
      <point x="298" y="24" type="curve" smooth="yes"/>
      <point x="215" y="24"/>
      <point x="133" y="61"/>
      <point x="78" y="124" type="curve"/>
      <point x="54" y="97" type="line"/>
      <point x="114" y="28"/>
      <point x="205" y="-12"/>
    </contour>
  </outline>
</glyph>
<glyph name="seven" format="1">
  <advance width="469"/>
  <unicode hex="0037"/>
  <outline>
    <contour>
      <point x="107" y="0" type="line"/>
      <point x="147" y="0" type="line"/>
      <point x="456" y="658" type="line"/>
      <point x="456" y="687" type="line"/>
      <point x="1" y="687" type="line"/>
      <point x="1" y="651" type="line"/>
      <point x="413" y="651" type="line"/>
    </contour>
  </outline>
</glyph>
<glyph name="less" format="1">
  <advance width="591"/>
  <unicode hex="003C"/>
  <outline>
    <contour>
      <point x="509" y="102" type="line"/>
      <point x="509" y="146" type="line"/>
      <point x="101" y="344" type="line"/>
      <point x="509" y="542" type="line"/>
      <point x="509" y="586" type="line"/>
      <point x="54" y="366" type="line"/>
      <point x="54" y="322" type="line"/>
    </contour>
  </outline>
</glyph>
<glyph name="equal" format="1">
  <advance width="759"/>
  <unicode hex="003D"/>
  <outline>
    <contour>
      <point x="150" y="426" type="line"/>
      <point x="609" y="426" type="line"/>
      <point x="609" y="462" type="line"/>
      <point x="150" y="462" type="line"/>
    </contour>
    <contour>
      <point x="150" y="206" type="line"/>
      <point x="609" y="206" type="line"/>
      <point x="609" y="242" type="line"/>
      <point x="150" y="242" type="line"/>
    </contour>
  </outline>
</glyph>
<glyph name="at" format="1">
  <advance width="939"/>
  <unicode hex="0040"/>
  <outline>
    <contour>
      <point x="458" y="-116" type="curve" smooth="yes"/>
      <point x="549" y="-116"/>
      <point x="617" y="-96"/>
      <point x="694" y="-47" type="curve"/>
      <point x="676" y="-20" type="line"/>
      <point x="603" y="-64"/>
      <point x="542" y="-81"/>
      <point x="460" y="-81" type="curve" smooth="yes"/>
      <point x="272" y="-81"/>
      <point x="114" y="75"/>
      <point x="114" y="260" type="curve" smooth="yes"/>
      <point x="114" y="466"/>
      <point x="287" y="639"/>
      <point x="492" y="639" type="curve" smooth="yes"/>
      <point x="677" y="639"/>
      <point x="833" y="493"/>
      <point x="833" y="319" type="curve" smooth="yes"/>
      <point x="833" y="179"/>
      <point x="759" y="114"/>
      <point x="704" y="114" type="curve" smooth="yes"/>
      <point x="659" y="114"/>
      <point x="623" y="143"/>
      <point x="623" y="191" type="curve" smooth="yes"/>
      <point x="623" y="216"/>
      <point x="643" y="322"/>
      <point x="679" y="481" type="curve"/>
      <point x="639" y="486" type="line"/>
      <point x="625" y="420" type="line"/>
      <point x="603" y="463"/>
      <point x="553" y="501"/>
      <point x="482" y="501" type="curve" smooth="yes"/>
      <point x="364" y="501"/>
      <point x="264" y="387"/>
      <point x="264" y="251" type="curve" smooth="yes"/>
      <point x="264" y="150"/>
      <point x="327" y="78"/>
      <point x="417" y="78" type="curve" smooth="yes"/>
      <point x="486" y="78"/>
      <point x="548" y="116"/>
      <point x="585" y="164" type="curve"/>
      <point x="596" y="110"/>
      <point x="637" y="78"/>
      <point x="694" y="78" type="curve" smooth="yes"/>
      <point x="782" y="78"/>
      <point x="869" y="156"/>
      <point x="869" y="319" type="curve" smooth="yes"/>
      <point x="869" y="512"/>
      <point x="698" y="675"/>
      <point x="494" y="675" type="curve" smooth="yes"/>
      <point x="267" y="675"/>
      <point x="76" y="485"/>
      <point x="76" y="259" type="curve" smooth="yes"/>
      <point x="76" y="55"/>
      <point x="251" y="-116"/>
    </contour>
    <contour>
      <point x="426" y="114" type="curve" smooth="yes"/>
      <point x="352" y="114"/>
      <point x="300" y="172"/>
      <point x="300" y="255" type="curve" smooth="yes"/>
      <point x="300" y="369"/>
      <point x="385" y="465"/>
      <point x="486" y="465" type="curve" smooth="yes"/>
      <point x="572" y="465"/>
      <point x="620" y="394"/>
      <point x="601" y="294" type="curve" smooth="yes"/>
      <point x="583" y="199"/>
      <point x="520" y="114"/>
    </contour>
  </outline>
</glyph>
<glyph name="B" format="1">
  <advance width="705"/>
  <unicode hex="0042"/>
  <outline>
    <contour>
      <point x="126" y="0" type="line"/>
      <point x="425" y="0" type="line" smooth="yes"/>
      <point x="544" y="0"/>
      <point x="629" y="78"/>
      <point x="629" y="188" type="curve" smooth="yes"/>
      <point x="629" y="264"/>
      <point x="578" y="335"/>
      <point x="506" y="358" type="curve"/>
      <point x="562" y="377"/>
      <point x="602" y="443"/>
      <point x="602" y="516" type="curve" smooth="yes"/>
      <point x="602" y="616"/>
      <point x="524" y="687"/>
      <point x="413" y="687" type="curve" smooth="yes"/>
      <point x="126" y="687" type="line"/>
    </contour>
    <contour>
      <point x="162" y="36" type="line"/>
      <point x="162" y="340" type="line"/>
      <point x="425" y="340" type="line" smooth="yes"/>
      <point x="523" y="340"/>
      <point x="593" y="277"/>
      <point x="593" y="188" type="curve" smooth="yes"/>
      <point x="593" y="99"/>
      <point x="523" y="36"/>
      <point x="425" y="36" type="curve" smooth="yes"/>
    </contour>
    <contour>
      <point x="162" y="376" type="line"/>
      <point x="162" y="651" type="line"/>
      <point x="413" y="651" type="line" smooth="yes"/>
      <point x="503" y="651"/>
      <point x="566" y="595"/>
      <point x="566" y="516" type="curve" smooth="yes"/>
      <point x="566" y="434"/>
      <point x="508" y="376"/>
      <point x="425" y="376" type="curve" smooth="yes"/>
    </contour>
  </outline>
</glyph>
<glyph name="C" format="1">
  <advance width="693"/>
  <unicode hex="0043"/>
  <outline>
    <contour>
      <point x="410" y="-12" type="curve" smooth="yes"/>
      <point x="505" y="-12"/>
      <point x="593" y="29"/>
      <point x="657" y="93" type="curve"/>
      <point x="631" y="119" type="line"/>
      <point x="574" y="60"/>
      <point x="495" y="24"/>
      <point x="410" y="24" type="curve" smooth="yes"/>
      <point x="238" y="24"/>
      <point x="94" y="170"/>
      <point x="94" y="344" type="curve" smooth="yes"/>
      <point x="94" y="517"/>
      <point x="238" y="663"/>
      <point x="410" y="663" type="curve" smooth="yes"/>
      <point x="495" y="663"/>
      <point x="574" y="627"/>
      <point x="631" y="569" type="curve"/>
      <point x="657" y="594" type="line"/>
      <point x="593" y="659"/>
      <point x="505" y="699"/>
      <point x="410" y="699" type="curve" smooth="yes"/>
      <point x="219" y="699"/>
      <point x="58" y="537"/>
      <point x="58" y="344" type="curve" smooth="yes"/>
      <point x="58" y="151"/>
      <point x="219" y="-12"/>
    </contour>
    <contour>
      <point x="410" y="0" type="move" name="bottom"/>
    </contour>
    <contour>
      <point x="410" y="687" type="move" name="top"/>
    </contour>
  </outline>
</glyph>
<glyph name="E" format="1">
  <advance width="632"/>
  <unicode hex="0045"/>
  <outline>
    <contour>
      <point x="126" y="0" type="line"/>
      <point x="577" y="0" type="line"/>
      <point x="577" y="36" type="line"/>
      <point x="153" y="36" type="line"/>
      <point x="162" y="26" type="line"/>
      <point x="162" y="342" type="line"/>
      <point x="153" y="332" type="line"/>
      <point x="546" y="332" type="line"/>
      <point x="546" y="368" type="line"/>
      <point x="153" y="368" type="line"/>
      <point x="162" y="358" type="line"/>
      <point x="162" y="661" type="line"/>
      <point x="153" y="651" type="line"/>
      <point x="577" y="651" type="line"/>
      <point x="577" y="687" type="line"/>
      <point x="126" y="687" type="line"/>
    </contour>
    <contour>
      <point x="126" y="687" type="move" name="ae_upper"/>
    </contour>
    <contour>
      <point x="577" y="0" type="move" name="bottom"/>
    </contour>
    <contour>
      <point x="352" y="687" type="move" name="top"/>
    </contour>
  </outline>
</glyph>
<glyph name="F" format="1">
  <advance width="620"/>
  <unicode hex="0046"/>
  <outline>
    <contour>
      <point x="126" y="0" type="line"/>
      <point x="162" y="0" type="line"/>
      <point x="162" y="342" type="line"/>
      <point x="152" y="332" type="line"/>
      <point x="556" y="332" type="line"/>
      <point x="556" y="368" type="line"/>
      <point x="152" y="368" type="line"/>
      <point x="162" y="358" type="line"/>
      <point x="162" y="661" type="line"/>
      <point x="152" y="651" type="line"/>
      <point x="597" y="651" type="line"/>
      <point x="597" y="687" type="line"/>
      <point x="126" y="687" type="line"/>
    </contour>
  </outline>
</glyph>
<glyph name="G" format="1">
  <advance width="761"/>
  <unicode hex="0047"/>
  <outline>
    <contour>
      <point x="410" y="-12" type="curve" smooth="yes"/>
      <point x="512" y="-12"/>
      <point x="606" y="28"/>
      <point x="675" y="91" type="curve"/>
      <point x="650" y="116" type="line"/>
      <point x="587" y="59"/>
      <point x="502" y="24"/>
      <point x="410" y="24" type="curve" smooth="yes"/>
      <point x="238" y="24"/>
      <point x="94" y="170"/>
      <point x="94" y="344" type="curve" smooth="yes"/>
      <point x="94" y="517"/>
      <point x="238" y="663"/>
      <point x="410" y="663" type="curve" smooth="yes"/>
      <point x="502" y="663"/>
      <point x="587" y="628"/>
      <point x="649" y="571" type="curve"/>
      <point x="675" y="597" type="line"/>
      <point x="606" y="660"/>
      <point x="512" y="699"/>
      <point x="410" y="699" type="curve" smooth="yes"/>
      <point x="219" y="699"/>
      <point x="58" y="537"/>
      <point x="58" y="344" type="curve" smooth="yes"/>
      <point x="58" y="151"/>
      <point x="219" y="-12"/>
    </contour>
    <contour>
      <point x="639" y="91" type="line"/>
      <point x="675" y="91" type="line"/>
      <point x="675" y="341" type="line"/>
      <point x="400" y="341" type="line"/>
      <point x="400" y="305" type="line"/>
      <point x="654" y="305" type="line"/>
      <point x="639" y="325" type="line"/>
    </contour>
    <contour>
      <point x="410" y="0" type="move" name="bottom"/>
    </contour>
    <contour>
      <point x="410" y="687" type="move" name="top"/>
    </contour>
  </outline>
</glyph>
<glyph name="J" format="1">
  <advance width="526"/>
  <unicode hex="004A"/>
  <outline>
    <contour>
      <point x="208" y="-12" type="curve" smooth="yes"/>
      <point x="329" y="-12"/>
      <point x="414" y="82"/>
      <point x="414" y="214" type="curve" smooth="yes"/>
      <point x="414" y="687" type="line"/>
      <point x="378" y="687" type="line"/>
      <point x="378" y="214" type="line" smooth="yes"/>
      <point x="378" y="103"/>
      <point x="308" y="24"/>
      <point x="208" y="24" type="curve" smooth="yes"/>
      <point x="136" y="24"/>
      <point x="68" y="68"/>
      <point x="29" y="130" type="curve"/>
      <point x="7" y="102" type="line"/>
      <point x="49" y="35"/>
      <point x="126" y="-12"/>
    </contour>
  </outline>
</glyph>
<glyph name="L" format="1">
  <advance width="560"/>
  <unicode hex="004C"/>
  <outline>
    <contour>
      <point x="126" y="0" type="line"/>
      <point x="558" y="0" type="line"/>
      <point x="558" y="36" type="line"/>
      <point x="151" y="36" type="line"/>
      <point x="162" y="24" type="line"/>
      <point x="162" y="687" type="line"/>
      <point x="126" y="687" type="line"/>
    </contour>
    <contour>
      <point x="144" y="687" type="move" name="top"/>
    </contour>
  </outline>
</glyph>
<glyph name="M" format="1">
  <advance width="876"/>
  <unicode hex="004D"/>
  <outline>
    <contour>
      <point x="126" y="0" type="line"/>
      <point x="162" y="0" type="line"/>
      <point x="162" y="615" type="line"/>
      <point x="438" y="96" type="line"/>
      <point x="714" y="615" type="line"/>
      <point x="714" y="0" type="line"/>
      <point x="750" y="0" type="line"/>
      <point x="750" y="687" type="line"/>
      <point x="714" y="687" type="line"/>
      <point x="438" y="168" type="line"/>
      <point x="162" y="687" type="line"/>
      <point x="126" y="687" type="line"/>
    </contour>
  </outline>
</glyph>
<glyph name="N" format="1">
  <advance width="792"/>
  <unicode hex="004E"/>
  <outline>
    <contour>
      <point x="126" y="0" type="line"/>
      <point x="162" y="0" type="line"/>
      <point x="162" y="631" type="line"/>
      <point x="630" y="0" type="line"/>
      <point x="666" y="0" type="line"/>
      <point x="666" y="687" type="line"/>
      <point x="630" y="687" type="line"/>
      <point x="630" y="56" type="line"/>
      <point x="162" y="687" type="line"/>
      <point x="126" y="687" type="line"/>
    </contour>
    <contour>
      <point x="396" y="0" type="move" name="bottom"/>
    </contour>
    <contour>
      <point x="396" y="687" type="move" name="top"/>
    </contour>
  </outline>
</glyph>
<glyph name="P" format="1">
  <advance width="691"/>
  <unicode hex="0050"/>
  <outline>
    <contour>
      <point x="126" y="0" type="line"/>
      <point x="162" y="0" type="line"/>
      <point x="162" y="267" type="line"/>
      <point x="415" y="267" type="line" smooth="yes"/>
      <point x="554" y="267"/>
      <point x="653" y="354"/>
      <point x="653" y="477" type="curve" smooth="yes"/>
      <point x="653" y="600"/>
      <point x="554" y="687"/>
      <point x="415" y="687" type="curve" smooth="yes"/>
      <point x="126" y="687" type="line"/>
    </contour>
    <contour>
      <point x="162" y="303" type="line"/>
      <point x="162" y="651" type="line"/>
      <point x="408" y="651" type="line" smooth="yes"/>
      <point x="530" y="651"/>
      <point x="617" y="579"/>
      <point x="617" y="477" type="curve" smooth="yes"/>
      <point x="617" y="375"/>
      <point x="530" y="303"/>
      <point x="408" y="303" type="curve" smooth="yes"/>
    </contour>
  </outline>
</glyph>
<glyph name="R" format="1">
  <advance width="700"/>
  <unicode hex="0052"/>
  <outline>
    <contour>
      <point x="538" y="0" type="line"/>
      <point x="582" y="0" type="line"/>
      <point x="378" y="291" type="line"/>
      <point x="334" y="291" type="line"/>
    </contour>
    <component base="P"/>
    <contour>
      <point x="334" y="0" type="move" name="bottom"/>
    </contour>
    <contour>
      <point x="334" y="687" type="move" name="top"/>
    </contour>
  </outline>
</glyph>
<glyph name="W" format="1">
  <advance width="1013"/>
  <unicode hex="0057"/>
  <outline>
    <contour>
      <point x="257" y="0" type="line"/>
      <point x="296" y="0" type="line"/>
      <point x="507" y="629" type="line"/>
      <point x="717" y="0" type="line"/>
      <point x="756" y="0" type="line"/>
      <point x="986" y="687" type="line"/>
      <point x="947" y="687" type="line"/>
      <point x="737" y="58" type="line"/>
      <point x="526" y="687" type="line"/>
      <point x="487" y="687" type="line"/>
      <point x="277" y="58" type="line"/>
      <point x="66" y="687" type="line"/>
      <point x="27" y="687" type="line"/>
    </contour>
    <contour>
      <point x="507" y="687" type="move" name="top"/>
    </contour>
  </outline>
</glyph>
<glyph name="Y" format="1">
  <advance width="600"/>
  <unicode hex="0059"/>
  <outline>
    <contour>
      <point x="282" y="0" type="line"/>
      <point x="318" y="0" type="line"/>
      <point x="318" y="279" type="line"/>
      <point x="598" y="687" type="line"/>
      <point x="552" y="687" type="line"/>
      <point x="300" y="320" type="line"/>
      <point x="48" y="687" type="line"/>
      <point x="2" y="687" type="line"/>
      <point x="282" y="279" type="line"/>
    </contour>
    <contour>
      <point x="300" y="687" type="move" name="top"/>
    </contour>
  </outline>
</glyph>
<glyph name="backslash" format="1">
  <advance width="358"/>
  <unicode hex="005C"/>
  <outline>
    <contour>
      <point x="335" y="-74" type="line"/>
      <point x="374" y="-74" type="line"/>
      <point x="23" y="743" type="line"/>
      <point x="-16" y="743" type="line"/>
    </contour>
  </outline>
</glyph>
<glyph name="bracketright" format="1">
  <advance width="357"/>
  <unicode hex="005D"/>
  <outline>
    <contour>
      <point x="15" y="-115" type="line"/>
      <point x="236" y="-115" type="line"/>
      <point x="236" y="734" type="line"/>
      <point x="15" y="734" type="line"/>
      <point x="15" y="698" type="line"/>
      <point x="200" y="698" type="line"/>
      <point x="200" y="-79" type="line"/>
      <point x="15" y="-79" type="line"/>
    </contour>
  </outline>
</glyph>
<glyph name="e" format="1">
  <advance width="588"/>
  <unicode hex="0065"/>
  <outline>
    <contour>
      <point x="299" y="-12" type="curve" smooth="yes"/>
      <point x="382" y="-12"/>
      <point x="472" y="21"/>
      <point x="515" y="68" type="curve"/>
      <point x="490" y="95" type="line"/>
      <point x="447" y="48"/>
      <point x="373" y="24"/>
      <point x="299" y="24" type="curve" smooth="yes"/>
      <point x="181" y="24"/>
      <point x="81" y="132"/>
      <point x="81" y="260" type="curve" smooth="yes"/>
      <point x="81" y="390"/>
      <point x="177" y="493"/>
      <point x="299" y="493" type="curve" smooth="yes"/>
      <point x="425" y="493"/>
      <point x="509" y="401"/>
      <point x="509" y="264" type="curve"/>
      <point x="515" y="278" type="line"/>
      <point x="66" y="278" type="line"/>
      <point x="66" y="242" type="line"/>
      <point x="545" y="242" type="line"/>
      <point x="545" y="414"/>
      <point x="447" y="529"/>
      <point x="299" y="529" type="curve" smooth="yes"/>
      <point x="157" y="529"/>
      <point x="45" y="411"/>
      <point x="45" y="260" type="curve" smooth="yes"/>
      <point x="45" y="112"/>
      <point x="161" y="-12"/>
    </contour>
    <contour>
      <point x="299" y="-12" type="move" name="bottom"/>
    </contour>
    <contour>
      <point x="299" y="517" type="move" name="top"/>
    </contour>
  </outline>
</glyph>
<glyph name="g" format="1">
  <advance width="618"/>
  <unicode hex="0067"/>
  <outline>
    <contour>
      <point x="482" y="517" type="line"/>
      <point x="482" y="55" type="line" smooth="yes"/>
      <point x="482" y="-57"/>
      <point x="398" y="-136"/>
      <point x="280" y="-136" type="curve" smooth="yes"/>
      <point x="215" y="-136"/>
      <point x="137" y="-109"/>
      <point x="92" y="-71" type="curve"/>
      <point x="74" y="-103" type="line"/>
      <point x="121" y="-143"/>
      <point x="208" y="-172"/>
      <point x="283" y="-172" type="curve" smooth="yes"/>
      <point x="421" y="-172"/>
      <point x="518" y="-78"/>
      <point x="518" y="55" type="curve" smooth="yes"/>
      <point x="518" y="517" type="line"/>
    </contour>
    <contour>
      <point x="273" y="74" type="curve" smooth="yes"/>
      <point x="166" y="74"/>
      <point x="76" y="170"/>
      <point x="76" y="284" type="curve" smooth="yes"/>
      <point x="76" y="397"/>
      <point x="166" y="493"/>
      <point x="273" y="493" type="curve" smooth="yes"/>
      <point x="391" y="493"/>
      <point x="482" y="406"/>
      <point x="482" y="284" type="curve" smooth="yes"/>
      <point x="482" y="161"/>
      <point x="391" y="74"/>
    </contour>
    <contour>
      <point x="487" y="186" type="curve"/>
      <point x="487" y="382" type="line"/>
      <point x="452" y="479"/>
      <point x="369" y="529"/>
      <point x="266" y="529" type="curve" smooth="yes"/>
      <point x="143" y="529"/>
      <point x="40" y="417"/>
      <point x="40" y="284" type="curve" smooth="yes"/>
      <point x="40" y="150"/>
      <point x="143" y="38"/>
      <point x="266" y="38" type="curve" smooth="yes"/>
      <point x="365" y="38"/>
      <point x="452" y="89"/>
    </contour>
    <contour>
      <point x="283" y="-172" type="move" name="bottom"/>
    </contour>
    <contour>
      <point x="286" y="517" type="move" name="top"/>
    </contour>
  </outline>
</glyph>
<glyph name="s" format="1">
  <advance width="473"/>
  <unicode hex="0073"/>
  <outline>
    <contour>
      <point x="245" y="-12" type="curve" smooth="yes"/>
      <point x="342" y="-12"/>
      <point x="424" y="50"/>
      <point x="424" y="124" type="curve" smooth="yes"/>
      <point x="424" y="197"/>
      <point x="376" y="241"/>
      <point x="256" y="279" type="curve" smooth="yes"/>
      <point x="146" y="314"/>
      <point x="102" y="349"/>
      <point x="102" y="401" type="curve" smooth="yes"/>
      <point x="102" y="451"/>
      <point x="164" y="493"/>
      <point x="237" y="493" type="curve" smooth="yes"/>
      <point x="290" y="493"/>
      <point x="350" y="474"/>
      <point x="400" y="443" type="curve"/>
      <point x="422" y="471" type="line"/>
      <point x="366" y="507"/>
      <point x="298" y="529"/>
      <point x="237" y="529" type="curve" smooth="yes"/>
      <point x="144" y="529"/>
      <point x="66" y="469"/>
      <point x="66" y="397" type="curve" smooth="yes"/>
      <point x="66" y="328"/>
      <point x="115" y="285"/>
      <point x="238" y="247" type="curve" smooth="yes"/>
      <point x="345" y="214"/>
      <point x="388" y="178"/>
      <point x="388" y="120" type="curve" smooth="yes"/>
      <point x="388" y="68"/>
      <point x="323" y="24"/>
      <point x="245" y="24" type="curve" smooth="yes"/>
      <point x="184" y="24"/>
      <point x="113" y="50"/>
      <point x="53" y="93" type="curve"/>
      <point x="31" y="65" type="line"/>
      <point x="91" y="17"/>
      <point x="171" y="-12"/>
    </contour>
    <contour>
      <point x="234" y="0" type="move" name="bottom"/>
    </contour>
    <contour>
      <point x="238" y="517" type="move" name="top"/>
    </contour>
  </outline>
</glyph>
<glyph name="t" format="1">
  <advance width="323"/>
  <unicode hex="0074"/>
  <outline>
    <contour>
      <point x="218" y="-12" type="curve" smooth="yes"/>
      <point x="252" y="-12"/>
      <point x="287" y="0"/>
      <point x="314" y="21" type="curve"/>
      <point x="294" y="50" type="line"/>
      <point x="273" y="34"/>
      <point x="246" y="24"/>
      <point x="220" y="24" type="curve" smooth="yes"/>
      <point x="178" y="24"/>
      <point x="148" y="64"/>
      <point x="148" y="120" type="curve" smooth="yes"/>
      <point x="148" y="659" type="line"/>
      <point x="112" y="659" type="line"/>
      <point x="112" y="120" type="line" smooth="yes"/>
      <point x="112" y="43"/>
      <point x="156" y="-12"/>
    </contour>
    <contour>
      <point x="21" y="481" type="line"/>
      <point x="284" y="481" type="line"/>
      <point x="284" y="517" type="line"/>
      <point x="21" y="517" type="line"/>
    </contour>
    <contour>
      <point x="219" y="0" type="move" name="bottom"/>
    </contour>
  </outline>
</glyph>
<glyph name="u" format="1">
  <advance width="585"/>
  <unicode hex="0075"/>
  <outline>
    <component base="n" xScale="-1" yScale="-1" xOffset="585" yOffset="517"/>
    <contour>
      <point x="485" y="0" type="move" name="bottom"/>
    </contour>
    <contour>
      <point x="280" y="517" type="move" name="top"/>
    </contour>
  </outline>
</glyph>
<glyph name="v" format="1">
  <advance width="496"/>
  <unicode hex="0076"/>
  <outline>
    <contour>
      <point x="237" y="0" type="line"/>
      <point x="259" y="0" type="line"/>
      <point x="496" y="517" type="line"/>
      <point x="457" y="517" type="line"/>
      <point x="248" y="61" type="line"/>
      <point x="39" y="517" type="line"/>
      <point x="0" y="517" type="line"/>
    </contour>
  </outline>
</glyph>
<glyph name="w" format="1">
  <advance width="762"/>
  <unicode hex="0077"/>
  <outline>
    <contour>
      <point x="188" y="0" type="line"/>
      <point x="233" y="0" type="line"/>
      <point x="381" y="450" type="line"/>
      <point x="529" y="0" type="line"/>
      <point x="574" y="0" type="line"/>
      <point x="744" y="517" type="line"/>
      <point x="707" y="517" type="line"/>
      <point x="552" y="48" type="line"/>
      <point x="397" y="517" type="line"/>
      <point x="366" y="517" type="line"/>
      <point x="211" y="48" type="line"/>
      <point x="56" y="517" type="line"/>
      <point x="19" y="517" type="line"/>
    </contour>
    <contour>
      <point x="381" y="517" type="move" name="top"/>
    </contour>
  </outline>
</glyph>
<glyph name="x" format="1">
  <advance width="471"/>
  <unicode hex="0078"/>
  <outline>
    <contour>
      <point x="413" y="0" type="line"/>
      <point x="457" y="0" type="line"/>
      <point x="66" y="517" type="line"/>
      <point x="22" y="517" type="line"/>
    </contour>
    <contour>
      <point x="14" y="0" type="line"/>
      <point x="58" y="0" type="line"/>
      <point x="449" y="517" type="line"/>
      <point x="405" y="517" type="line"/>
    </contour>
  </outline>
</glyph>
<glyph name="y" format="1">
  <advance width="500"/>
  <unicode hex="0079"/>
  <outline>
    <contour>
      <point x="101" y="-180" type="curve" smooth="yes"/>
      <point x="174" y="-179"/>
      <point x="223" y="-145"/>
      <point x="251" y="-76" type="curve" smooth="yes"/>
      <point x="494" y="517" type="line"/>
      <point x="455" y="517" type="line"/>
      <point x="253" y="25" type="line"/>
      <point x="43" y="517" type="line"/>
      <point x="4" y="517" type="line"/>
      <point x="234" y="-21" type="line"/>
      <point x="203" y="-94" type="line"/>
      <point x="185" y="-125"/>
      <point x="147" y="-144"/>
      <point x="101" y="-144" type="curve" smooth="yes"/>
      <point x="78" y="-144"/>
      <point x="52" y="-137"/>
      <point x="29" y="-126" type="curve"/>
      <point x="19" y="-163" type="line"/>
      <point x="42" y="-174"/>
      <point x="73" y="-180"/>
    </contour>
    <contour>
      <point x="253" y="517" type="move" name="top"/>
    </contour>
  </outline>
</glyph>
<glyph name="braceleft" format="1">
  <advance width="334"/>
  <unicode hex="007B"/>
  <outline>
    <contour>
      <point x="316" y="-166" type="curve"/>
      <point x="320" y="-131" type="line"/>
      <point x="209" y="-119"/>
      <point x="165" y="-79"/>
      <point x="165" y="8" type="curve" smooth="yes"/>
      <point x="166" y="151" type="line" smooth="yes"/>
      <point x="166" y="218"/>
      <point x="146" y="251"/>
      <point x="96" y="266" type="curve"/>
      <point x="146" y="280"/>
      <point x="166" y="313"/>
      <point x="166" y="380" type="curve" smooth="yes"/>
      <point x="165" y="524" type="line" smooth="yes"/>
      <point x="165" y="610"/>
      <point x="209" y="650"/>
      <point x="320" y="662" type="curve"/>
      <point x="316" y="697" type="line"/>
      <point x="183" y="682"/>
      <point x="130" y="634"/>
      <point x="130" y="528" type="curve" smooth="yes"/>
      <point x="130" y="388" type="line" smooth="yes"/>
      <point x="130" y="314"/>
      <point x="98" y="284"/>
      <point x="17" y="284" type="curve"/>
      <point x="17" y="248" type="line"/>
      <point x="98" y="248"/>
      <point x="130" y="218"/>
      <point x="130" y="144" type="curve" smooth="yes"/>
      <point x="130" y="3" type="line" smooth="yes"/>
      <point x="130" y="-103"/>
      <point x="183" y="-151"/>
    </contour>
  </outline>
</glyph>
<glyph name="macron" format="1">
  <advance width="494"/>
  <unicode hex="00AF"/>
  <outline>
    <contour>
      <point x="92" y="603" type="line"/>
      <point x="402" y="603" type="line"/>
      <point x="402" y="639" type="line"/>
      <point x="92" y="639" type="line"/>
    </contour>
    <contour>
      <point x="247" y="517" type="move" name="_top"/>
    </contour>
    <contour>
      <point x="247" y="704" type="move" name="top"/>
    </contour>
  </outline>
</glyph>
<glyph name="periodcentered" format="1">
  <advance width="303"/>
  <unicode hex="00B7"/>
  <outline>
    <contour>
      <point x="152" y="241" type="curve" smooth="yes"/>
      <point x="167" y="241"/>
      <point x="179" y="253"/>
      <point x="179" y="269" type="curve" smooth="yes"/>
      <point x="179" y="284"/>
      <point x="167" y="296"/>
      <point x="152" y="296" type="curve" smooth="yes"/>
      <point x="136" y="296"/>
      <point x="124" y="284"/>
      <point x="124" y="269" type="curve" smooth="yes"/>
      <point x="124" y="253"/>
      <point x="136" y="241"/>
    </contour>
  </outline>
</glyph>
<glyph name="AE" format="1">
  <advance width="929"/>
  <unicode hex="00C6"/>
  <outline>
    <contour>
      <point x="6" y="0" type="line"/>
      <point x="48" y="0" type="line"/>
      <point x="149" y="175" type="line"/>
      <point x="423" y="175" type="line"/>
      <point x="423" y="0" type="line"/>
      <point x="874" y="0" type="line"/>
      <point x="874" y="36" type="line"/>
      <point x="459" y="36" type="line"/>
      <point x="459" y="332" type="line"/>
      <point x="843" y="332" type="line"/>
      <point x="843" y="368" type="line"/>
      <point x="459" y="368" type="line"/>
      <point x="459" y="651" type="line"/>
      <point x="874" y="651" type="line"/>
      <point x="874" y="687" type="line"/>
      <point x="403" y="687" type="line"/>
    </contour>
    <contour>
      <point x="170" y="211" type="line"/>
      <point x="423" y="651" type="line"/>
      <point x="423" y="211" type="line"/>
    </contour>
  </outline>
</glyph>
<glyph name="Thorn" format="1">
  <advance width="714"/>
  <unicode hex="00DE"/>
  <outline>
    <contour>
      <point x="112" y="0" type="line"/>
      <point x="148" y="0" type="line"/>
      <point x="148" y="136" type="line"/>
      <point x="401" y="136" type="line" smooth="yes"/>
      <point x="540" y="136"/>
      <point x="639" y="223"/>
      <point x="639" y="346" type="curve" smooth="yes"/>
      <point x="639" y="469"/>
      <point x="540" y="556"/>
      <point x="401" y="556" type="curve" smooth="yes"/>
      <point x="148" y="556" type="line"/>
      <point x="148" y="687" type="line"/>
      <point x="112" y="687" type="line"/>
    </contour>
    <contour>
      <point x="148" y="172" type="line"/>
      <point x="148" y="520" type="line"/>
      <point x="394" y="520" type="line" smooth="yes"/>
      <point x="516" y="520"/>
      <point x="603" y="448"/>
      <point x="603" y="346" type="curve" smooth="yes"/>
      <point x="603" y="244"/>
      <point x="516" y="172"/>
      <point x="394" y="172" type="curve" smooth="yes"/>
    </contour>
  </outline>
</glyph>
<glyph name="germandbls" format="1">
  <advance width="562"/>
  <unicode hex="00DF"/>
  <outline>
    <contour>
      <point x="101" y="0" type="line"/>
      <point x="137" y="0" type="line"/>
      <point x="137" y="517" type="line" smooth="yes"/>
      <point x="137" y="601"/>
      <point x="206" y="671"/>
      <point x="289" y="671" type="curve" smooth="yes"/>
      <point x="371" y="671"/>
      <point x="440" y="602"/>
      <point x="440" y="519" type="curve" smooth="yes"/>
      <point x="440" y="437"/>
      <point x="378" y="379"/>
      <point x="291" y="379" type="curve" smooth="yes"/>
      <point x="223" y="379" type="line"/>
      <point x="223" y="343" type="line"/>
      <point x="297" y="343" type="line" smooth="yes"/>
      <point x="397" y="343"/>
      <point x="467" y="282"/>
      <point x="467" y="196" type="curve" smooth="yes"/>
      <point x="467" y="109"/>
      <point x="391" y="36"/>
      <point x="300" y="36" type="curve" smooth="yes"/>
      <point x="223" y="36" type="line"/>
      <point x="223" y="0" type="line"/>
      <point x="320" y="0" type="line" smooth="yes"/>
      <point x="419" y="0"/>
      <point x="503" y="87"/>
      <point x="503" y="191" type="curve" smooth="yes"/>
      <point x="503" y="264"/>
      <point x="456" y="336"/>
      <point x="389" y="365" type="curve"/>
      <point x="440" y="389"/>
      <point x="476" y="455"/>
      <point x="476" y="524" type="curve" smooth="yes"/>
      <point x="476" y="623"/>
      <point x="391" y="707"/>
      <point x="289" y="707" type="curve" smooth="yes"/>
      <point x="187" y="707"/>
      <point x="101" y="623"/>
      <point x="101" y="523" type="curve" smooth="yes"/>
    </contour>
  </outline>
</glyph>
<glyph name="ae" format="1">
  <advance width="975"/>
  <unicode hex="00E6"/>
  <outline>
    <contour>
      <point x="237" y="-12" type="curve" smooth="yes"/>
      <point x="372" y="-12"/>
      <point x="468" y="82"/>
      <point x="468" y="216" type="curve"/>
      <point x="468" y="315" type="line" smooth="yes"/>
      <point x="468" y="440"/>
      <point x="393" y="529"/>
      <point x="269" y="529" type="curve" smooth="yes"/>
      <point x="215" y="529"/>
      <point x="148" y="512"/>
      <point x="91" y="479" type="curve"/>
      <point x="106" y="448" type="line"/>
      <point x="154" y="477"/>
      <point x="212" y="493"/>
      <point x="264" y="493" type="curve" smooth="yes"/>
      <point x="387" y="493"/>
      <point x="432" y="402"/>
      <point x="432" y="315" type="curve" smooth="yes"/>
      <point x="432" y="216" type="line"/>
      <point x="432" y="104"/>
      <point x="353" y="24"/>
      <point x="241" y="24" type="curve" smooth="yes"/>
      <point x="145" y="24"/>
      <point x="77" y="78"/>
      <point x="77" y="155" type="curve" smooth="yes"/>
      <point x="77" y="233"/>
      <point x="148" y="289"/>
      <point x="253" y="289" type="curve" smooth="yes"/>
      <point x="318" y="289"/>
      <point x="390" y="268"/>
      <point x="445" y="248" type="curve"/>
      <point x="445" y="284" type="line"/>
      <point x="384" y="308"/>
      <point x="310" y="325"/>
      <point x="249" y="325" type="curve" smooth="yes"/>
      <point x="124" y="325"/>
      <point x="41" y="254"/>
      <point x="41" y="154" type="curve" smooth="yes"/>
      <point x="41" y="57"/>
      <point x="122" y="-12"/>
    </contour>
    <component base="e" xOffset="387"/>
  </outline>
</glyph>
<glyph name="eth" format="1">
  <advance width="593"/>
  <unicode hex="00F0"/>
  <outline>
    <contour>
      <point x="291" y="24" type="curve" smooth="yes"/>
      <point x="169" y="24"/>
      <point x="82" y="116"/>
      <point x="82" y="245" type="curve" smooth="yes"/>
      <point x="82" y="375"/>
      <point x="169" y="467"/>
      <point x="292" y="467" type="curve" smooth="yes"/>
      <point x="418" y="467"/>
      <point x="501" y="377"/>
      <point x="501" y="249" type="curve" smooth="yes"/>
      <point x="501" y="117"/>
      <point x="414" y="24"/>
    </contour>
    <contour>
      <point x="302" y="622"/>
      <point x="412" y="524"/>
      <point x="470" y="414" type="curve"/>
      <point x="422" y="479"/>
      <point x="357" y="503"/>
      <point x="292" y="503" type="curve" smooth="yes"/>
      <point x="148" y="503"/>
      <point x="46" y="397"/>
      <point x="46" y="246" type="curve" smooth="yes"/>
      <point x="46" y="95"/>
      <point x="148" y="-12"/>
      <point x="292" y="-12" type="curve" smooth="yes"/>
      <point x="436" y="-12"/>
      <point x="537" y="99"/>
      <point x="537" y="255" type="curve" smooth="yes"/>
      <point x="537" y="440"/>
      <point x="385" y="613"/>
      <point x="216" y="713" type="curve"/>
      <point x="183" y="696" type="line"/>
    </contour>
    <contour>
      <point x="186" y="545" type="line"/>
      <point x="426" y="652" type="line"/>
      <point x="411" y="685" type="line"/>
      <point x="171" y="578" type="line"/>
    </contour>
  </outline>
</glyph>
<glyph name="divide" format="1">
  <advance width="587"/>
  <unicode hex="00F7"/>
  <outline>
    <contour>
      <point x="64" y="316" type="line"/>
      <point x="523" y="316" type="line"/>
      <point x="523" y="352" type="line"/>
      <point x="64" y="352" type="line"/>
    </contour>
    <contour>
      <point x="295" y="142" type="curve" smooth="yes"/>
      <point x="311" y="142"/>
      <point x="324" y="156"/>
      <point x="324" y="173" type="curve" smooth="yes"/>
      <point x="324" y="188"/>
      <point x="311" y="202"/>
      <point x="295" y="202" type="curve" smooth="yes"/>
      <point x="277" y="202"/>
      <point x="264" y="188"/>
      <point x="264" y="173" type="curve" smooth="yes"/>
      <point x="264" y="156"/>
      <point x="277" y="142"/>
    </contour>
    <contour>
      <point x="295" y="466" type="curve" smooth="yes"/>
      <point x="311" y="466"/>
      <point x="324" y="480"/>
      <point x="324" y="497" type="curve" smooth="yes"/>
      <point x="324" y="512"/>
      <point x="311" y="526"/>
      <point x="295" y="526" type="curve" smooth="yes"/>
      <point x="277" y="526"/>
      <point x="264" y="512"/>
      <point x="264" y="497" type="curve" smooth="yes"/>
      <point x="264" y="480"/>
      <point x="277" y="466"/>
    </contour>
  </outline>
</glyph>
<glyph name="dcaron" format="1">
  <advance width="633"/>
  <unicode hex="010F"/>
  <outline>
    <component base="d"/>
    <component base="commaaccentcomb" xOffset="523" yOffset="796"/>
    <contour>
      <point x="135" y="517" type="move" name="_top"/>
    </contour>
    <contour>
      <point x="135" y="704" type="move" name="top"/>
    </contour>
  </outline>
</glyph>
<glyph name="jdotless" format="1">
  <advance width="216"/>
  <unicode hex="0237"/>
  <outline>
    <contour>
      <point x="19" y="-178" type="curve" smooth="yes"/>
      <point x="82" y="-178"/>
      <point x="126" y="-127"/>
      <point x="126" y="-56" type="curve" smooth="yes"/>
      <point x="126" y="517" type="line"/>
      <point x="90" y="517" type="line"/>
      <point x="90" y="-56" type="line" smooth="yes"/>
      <point x="90" y="-106"/>
      <point x="60" y="-142"/>
      <point x="17" y="-142" type="curve" smooth="yes"/>
      <point x="-7" y="-142"/>
      <point x="-37" y="-136"/>
      <point x="-55" y="-128" type="curve"/>
      <point x="-62" y="-162" type="line"/>
      <point x="-41" y="-171"/>
      <point x="-8" y="-178"/>
    </contour>
    <contour>
      <point x="107" y="517" type="move" name="top"/>
    </contour>
  </outline>
</glyph>
<glyph name="dotaccent" format="1">
  <advance width="226"/>
  <unicode hex="02D9"/>
  <outline>
    <contour>
      <point x="113" y="613" type="curve" smooth="yes"/>
      <point x="129" y="613"/>
      <point x="143" y="627"/>
      <point x="143" y="643" type="curve" smooth="yes"/>
      <point x="143" y="659"/>
      <point x="129" y="673"/>
      <point x="113" y="673" type="curve" smooth="yes"/>
      <point x="96" y="673"/>
      <point x="83" y="659"/>
      <point x="83" y="643" type="curve" smooth="yes"/>
      <point x="83" y="627"/>
      <point x="96" y="613"/>
    </contour>
    <contour>
      <point x="113" y="517" type="move" name="_top"/>
    </contour>
    <contour>
      <point x="113" y="0" type="move" name="bottom"/>
    </contour>
    <contour>
      <point x="113" y="704" type="move" name="top"/>
    </contour>
  </outline>
</glyph>
<glyph name="ring" format="1">
  <advance width="344"/>
  <unicode hex="02DA"/>
  <outline>
    <contour>
      <point x="172" y="589" type="curve" smooth="yes"/>
      <point x="228" y="589"/>
      <point x="275" y="636"/>
      <point x="275" y="692" type="curve" smooth="yes"/>
      <point x="275" y="748"/>
      <point x="228" y="795"/>
      <point x="172" y="795" type="curve" smooth="yes"/>
      <point x="116" y="795"/>
      <point x="69" y="748"/>
      <point x="69" y="692" type="curve" smooth="yes"/>
      <point x="69" y="636"/>
      <point x="116" y="589"/>
    </contour>
    <contour>
      <point x="172" y="623" type="curve" smooth="yes"/>
      <point x="135" y="623"/>
      <point x="103" y="655"/>
      <point x="103" y="692" type="curve" smooth="yes"/>
      <point x="103" y="729"/>
      <point x="135" y="761"/>
      <point x="172" y="761" type="curve" smooth="yes"/>
      <point x="209" y="761"/>
      <point x="241" y="729"/>
      <point x="241" y="692" type="curve" smooth="yes"/>
      <point x="241" y="655"/>
      <point x="209" y="623"/>
    </contour>
    <contour>
      <point x="172" y="517" type="move" name="_top"/>
    </contour>
    <contour>
      <point x="172" y="704" type="move" name="top"/>
    </contour>
  </outline>
</glyph>
<glyph name="ogonek" format="1">
  <advance width="296"/>
  <unicode hex="02DB"/>
  <outline>
    <contour>
      <point x="171" y="-173" type="curve" smooth="yes"/>
      <point x="202" y="-173"/>
      <point x="233" y="-162"/>
      <point x="255" y="-144" type="curve"/>
      <point x="235" y="-114" type="line"/>
      <point x="222" y="-128"/>
      <point x="200" y="-137"/>
      <point x="176" y="-137" type="curve" smooth="yes"/>
      <point x="133" y="-137"/>
      <point x="108" y="-112"/>
      <point x="108" y="-70" type="curve" smooth="yes"/>
      <point x="108" y="-26"/>
      <point x="133" y="0"/>
      <point x="176" y="0" type="curve"/>
      <point x="152" y="21" type="line"/>
      <point x="105" y="15"/>
      <point x="72" y="-24"/>
      <point x="72" y="-73" type="curve" smooth="yes"/>
      <point x="72" y="-132"/>
      <point x="113" y="-173"/>
    </contour>
    <contour>
      <point x="176" y="0" type="move" name="_bottom"/>
    </contour>
  </outline>
</glyph>
<glyph name="tilde" format="1">
  <advance width="449"/>
  <unicode hex="02DC"/>
  <outline>
    <contour>
      <point x="289" y="586" type="curve" smooth="yes"/>
      <point x="338" y="586"/>
      <point x="371" y="626"/>
      <point x="380" y="694" type="curve"/>
      <point x="344" y="701" type="line"/>
      <point x="335" y="651"/>
      <point x="315" y="622"/>
      <point x="289" y="622" type="curve" smooth="yes"/>
      <point x="248" y="622"/>
      <point x="219" y="688"/>
      <point x="160" y="688" type="curve" smooth="yes"/>
      <point x="112" y="688"/>
      <point x="78" y="648"/>
      <point x="69" y="580" type="curve"/>
      <point x="105" y="573" type="line"/>
      <point x="113" y="623"/>
      <point x="134" y="652"/>
      <point x="160" y="652" type="curve" smooth="yes"/>
      <point x="201" y="652"/>
      <point x="230" y="586"/>
    </contour>
    <contour>
      <point x="225" y="517" type="move" name="_top"/>
    </contour>
    <contour>
      <point x="225" y="704" type="move" name="top"/>
    </contour>
  </outline>
</glyph>
<glyph name="endash" format="1">
  <advance width="649"/>
  <unicode hex="2013"/>
  <outline>
    <contour>
      <point x="92" y="254" type="line"/>
      <point x="557" y="254" type="line"/>
      <point x="557" y="290" type="line"/>
      <point x="92" y="290" type="line"/>
    </contour>
  </outline>
</glyph>
<glyph name="euro" format="1">
  <advance width="825"/>
  <unicode hex="20AC"/>
  <outline>
    <contour>
      <point x="74" y="252" type="line"/>
      <point x="570" y="252" type="line"/>
      <point x="570" y="288" type="line"/>
      <point x="74" y="288" type="line"/>
    </contour>
    <contour>
      <point x="74" y="419" type="line"/>
      <point x="570" y="419" type="line"/>
      <point x="570" y="455" type="line"/>
      <point x="74" y="455" type="line"/>
    </contour>
    <component base="C" xOffset="98"/>
  </outline>
</glyph>
<glyph name="trademark" format="1">
  <advance width="826"/>
  <unicode hex="2122"/>
  <outline>
    <contour>
      <point x="181" y="280" type="line"/>
      <point x="217" y="280" type="line"/>
      <point x="217" y="548" type="line"/>
      <point x="317" y="548" type="line"/>
      <point x="317" y="579" type="line"/>
      <point x="81" y="579" type="line"/>
      <point x="81" y="548" type="line"/>
      <point x="181" y="548" type="line"/>
    </contour>
    <contour>
      <point x="385" y="280" type="line"/>
      <point x="418" y="280" type="line"/>
      <point x="418" y="518" type="line"/>
      <point x="530" y="321" type="line"/>
      <point x="641" y="518" type="line"/>
      <point x="641" y="280" type="line"/>
      <point x="676" y="280" type="line"/>
      <point x="676" y="580" type="line"/>
      <point x="641" y="580" type="line"/>
      <point x="530" y="383" type="line"/>
      <point x="418" y="580" type="line"/>
      <point x="385" y="580" type="line"/>
    </contour>
  </outline>
</glyph>
<glyph name="minus" format="1">
  <advance width="745"/>
  <unicode hex="2212"/>
  <outline>
    <contour>
      <point x="143" y="316" type="line"/>
      <point x="602" y="316" type="line"/>
      <point x="602" y="352" type="line"/>
      <point x="143" y="352" type="line"/>
    </contour>
  </outline>
</glyph>
<glyph name="ascender" format="1">
  <advance width="238"/>
  <outline>
    <contour>
      <point x="101" y="0" type="line"/>
      <point x="137" y="0" type="line"/>
      <point x="137" y="699" type="line"/>
      <point x="101" y="699" type="line"/>
    </contour>
    <contour>
      <point x="128" y="125" type="move" name="k_arms"/>
    </contour>
    <contour>
      <point x="101" y="259" type="move" name="loop_left"/>
    </contour>
    <contour>
      <point x="137" y="259" type="move" name="loop_right"/>
    </contour>
    <contour>
      <point x="137" y="330" type="move" name="shoulder"/>
    </contour>
  </outline>
</glyph>
<glyph name="k_arms" format="1">
  <advance width="393"/>
  <outline>
    <contour>
      <point x="329" y="0" type="line"/>
      <point x="375" y="0" type="line"/>
      <point x="155" y="280" type="line"/>
      <point x="387" y="517" type="line"/>
      <point x="337" y="517" type="line"/>
      <point x="3" y="177" type="line"/>
      <point x="3" y="125" type="line"/>
      <point x="130" y="255" type="line"/>
    </contour>
    <contour>
      <point x="3" y="125" type="move" name="k_arms"/>
    </contour>
  </outline>
</glyph>
<glyph name="lowercase_loop" format="1">
  <advance width="604"/>
  <outline>
    <contour>
      <point x="307" y="-12" type="curve" smooth="yes"/>
      <point x="433" y="-12"/>
      <point x="539" y="112"/>
      <point x="539" y="259" type="curve" smooth="yes"/>
      <point x="539" y="406"/>
      <point x="433" y="529"/>
      <point x="307" y="529" type="curve" smooth="yes"/>
      <point x="166" y="529"/>
      <point x="67" y="417"/>
      <point x="67" y="259" type="curve" smooth="yes"/>
      <point x="67" y="100"/>
      <point x="166" y="-12"/>
    </contour>
    <contour>
      <point x="300" y="24" type="curve" smooth="yes"/>
      <point x="185" y="24"/>
      <point x="103" y="121"/>
      <point x="103" y="259" type="curve" smooth="yes"/>
      <point x="103" y="396"/>
      <point x="185" y="493"/>
      <point x="300" y="493" type="curve" smooth="yes"/>
      <point x="410" y="493"/>
      <point x="503" y="386"/>
      <point x="503" y="259" type="curve" smooth="yes"/>
      <point x="503" y="131"/>
      <point x="410" y="24"/>
    </contour>
    <contour>
      <point x="103" y="259" type="move" name="_loop_right"/>
    </contour>
  </outline>
</glyph>
<glyph name="lowercase_loop_reverse" format="1">
  <advance width="563"/>
  <outline>
    <contour>
      <point x="276" y="-12" type="curve" smooth="yes"/>
      <point x="417" y="-12"/>
      <point x="516" y="100"/>
      <point x="516" y="259" type="curve" smooth="yes"/>
      <point x="516" y="417"/>
      <point x="417" y="529"/>
      <point x="276" y="529" type="curve" smooth="yes"/>
      <point x="150" y="529"/>
      <point x="44" y="406"/>
      <point x="44" y="259" type="curve" smooth="yes"/>
      <point x="44" y="112"/>
      <point x="150" y="-12"/>
    </contour>
    <contour>
      <point x="283" y="24" type="curve" smooth="yes"/>
      <point x="173" y="24"/>
      <point x="80" y="131"/>
      <point x="80" y="259" type="curve" smooth="yes"/>
      <point x="80" y="386"/>
      <point x="173" y="493"/>
      <point x="283" y="493" type="curve" smooth="yes"/>
      <point x="398" y="493"/>
      <point x="480" y="396"/>
      <point x="480" y="259" type="curve" smooth="yes"/>
      <point x="480" y="121"/>
      <point x="398" y="24"/>
    </contour>
    <contour>
      <point x="480" y="259" type="move" name="_loop_left"/>
    </contour>
  </outline>
</glyph>
<glyph name="lowercase_nh_shoulder" format="1">
  <advance width="469"/>
  <outline>
    <contour>
      <point x="349" y="0" type="line"/>
      <point x="385" y="0" type="line"/>
      <point x="385" y="339" type="line" smooth="yes"/>
      <point x="385" y="450"/>
      <point x="305" y="529"/>
      <point x="192" y="529" type="curve" smooth="yes"/>
      <point x="85" y="529"/>
      <point x="9" y="459"/>
      <point x="9" y="360" type="curve"/>
      <point x="22" y="330" type="line"/>
      <point x="22" y="425"/>
      <point x="90" y="493"/>
      <point x="187" y="493" type="curve" smooth="yes"/>
      <point x="282" y="493"/>
      <point x="349" y="427"/>
      <point x="349" y="334" type="curve" smooth="yes"/>
    </contour>
    <contour>
      <point x="22" y="330" type="move" name="_shoulder"/>
    </contour>
  </outline>
</glyph>
